<svg id="Layer_1" height="512" viewBox="0 0 128 128" width="512" xmlns="http://www.w3.org/2000/svg" data-name="Layer 1"><path d="m110 34h-26a1 1 0 0 1 -1-1v-19a1 1 0 0 1 2 0v18h24v-18a1 1 0 0 1 2 0v19a1 1 0 0 1 -1 1z" fill="#db9130"/><path d="m120 32h-46a6 6 0 0 0 -6 6v27a1 1 0 0 0 1 1h19a4 4 0 0 1 4 4v47a1 1 0 0 0 1 1h27a6 6 0 0 0 6-6v-74a6 6 0 0 0 -6-6z" fill="#ff5d60"/><rect fill="#ffd48f" height="8" rx="1" width="34" x="92" y="72"/><rect fill="#ffd48f" height="8" rx="1" width="34" x="92" y="98"/><rect fill="#ffd48f" height="8" rx="1" width="58" x="68" y="44"/><path d="m82.5 66h-5a1 1 0 0 1 -1-1v-2.56a2.44 2.44 0 0 1 2.44-2.44h2.12a2.44 2.44 0 0 1 2.44 2.44v2.56a1 1 0 0 1 -1 1zm-4-2h3v-1.56a.44.44 0 0 0 -.44-.44h-2.12a.44.44 0 0 0 -.44.44z" fill="#db9130"/><path d="m18.5 66h-5a1 1 0 0 1 -1-1v-2.56a2.44 2.44 0 0 1 2.44-2.44h2.12a2.44 2.44 0 0 1 2.44 2.44v2.56a1 1 0 0 1 -1 1zm-4-2h3v-1.56a.44.44 0 0 0 -.44-.44h-2.12a.44.44 0 0 0 -.44.44z" fill="#db9130"/><path d="m60 50h-24a6 6 0 0 0 -6 6v9a1 1 0 0 0 1 1h5a1 1 0 0 0 1-1v-6.33a1.67 1.67 0 0 1 1.67-1.67h18.66a1.67 1.67 0 0 1 1.67 1.67v6.33a1 1 0 0 0 1 1h5a1 1 0 0 0 1-1v-9a6 6 0 0 0 -6-6z" fill="#db9130"/><rect fill="#009ace" height="62" rx="6" width="92" x="2" y="64"/><path d="m27 64h-6a1 1 0 0 0 -1 1v43.32a1 1 0 0 0 .84 1l.54.08 2.39 4.19-1.77 4.48-1.28.39a1 1 0 0 0 -.71 1v5.54a1 1 0 0 0 1 1h6a1 1 0 0 0 1-1v-60a1 1 0 0 0 -1.01-1z" fill="#db9130"/><path d="m75 64h-6a1 1 0 0 0 -1 1v29.65a1 1 0 0 0 .29.71l2 2-2 2a1 1 0 0 0 -.29.71v24.93a1 1 0 0 0 1 1h6a1 1 0 0 0 1-1v-60a1 1 0 0 0 -1-1z" fill="#db9130"/><path d="m110.72 2h-27.44a2.28 2.28 0 0 0 -2.28 2.28v9.72a1 1 0 0 0 1 1h4a1 1 0 0 0 1-1v-5.72a.28.28 0 0 1 .28-.28h19.44a.28.28 0 0 1 .28.28v5.72a1 1 0 0 0 1 1h4a1 1 0 0 0 1-1v-9.72a2.28 2.28 0 0 0 -2.28-2.28z" fill="#db9130"/><path d="m116.9 120a5 5 0 0 0 -9.8 0 5.05 5.05 0 0 0 0 2 5 5 0 0 0 9.8 0 5.05 5.05 0 0 0 0-2z" fill="#6e6458"/><path d="m108.46 117.46a4.72 4.72 0 0 1 .78-.64l6.93 6.93a5.05 5.05 0 0 1 -1.41 1.41l-6.93-6.93a4.72 4.72 0 0 1 .63-.77z" fill="#837862"/><path d="m115.54 117.46a4.72 4.72 0 0 1 .64.78l-6.93 6.93a5.05 5.05 0 0 1 -1.41-1.41l6.93-6.93a4.72 4.72 0 0 1 .77.63z" fill="#837862"/><path d="m25.75 113-2.87-5a1 1 0 0 0 -.71-.49l-5.72-.89a1 1 0 0 0 -.83.25l-4.27 3.92a1 1 0 0 0 -.32.81l.41 5.77a1 1 0 0 0 .43.75l4.77 3.29a1 1 0 0 0 .86.13l5.5-1.69a1 1 0 0 0 .64-.59l2.14-5.38a1 1 0 0 0 -.03-.88z" fill="#fff27f"/><path d="m72.46 96.69-5.65-5.69a1 1 0 0 0 -1.42 0l-2.12 2.13-1.42 1.41-7.77 7.77-1.41 1.42-2.13 2.12a1 1 0 0 0 0 1.42l5.65 5.73a1 1 0 0 0 1.42 0l2.13-2.12 1.41-1.42 7.77-7.77 1.42-1.41 2.12-2.13a1 1 0 0 0 0-1.46z" fill="#ff5d60"/><g fill="#ffd48f"><path d="m68.92 98.82-4.24-4.24-1.41-1.41-1.42 1.41 7.07 7.07 1.42-1.41zm-13.42 4.95-1.42-1.42-1.41 1.42 7.07 7.07 1.41-1.42-1.41-1.42z"/><path d="m77 33v1a7 7 0 0 1 -7 7h-1v-3a5 5 0 0 1 5-5z"/><path d="m117 33v1a7 7 0 0 0 7 7h1v-3a5 5 0 0 0 -5-5z"/><path d="m125 109h-1a7 7 0 0 0 -7 7v1h3a5 5 0 0 0 5-5z"/><path d="m50 74.37-.1-.68a1.72 1.72 0 0 0 -1.48-1.49l-.7-.1a4.69 4.69 0 0 0 -3.94 1.34l-2.63 2.63-.59-.22a1 1 0 0 0 -1.63-1.09l-.36.36-.6-.22a1 1 0 0 0 -.24-1 1 1 0 0 0 -1.41 0l-.28.28-.4-.15a3.09 3.09 0 0 0 -2.46.14l-2.68 1.35a1 1 0 0 0 0 1.81l6.5 2.85-6.61 6.62-4.14.66a1 1 0 0 0 -.77.61l-.26.63a1 1 0 0 0 .51 1.3l4.35 2 1.92 4.35a1 1 0 0 0 1.34.51l.68-.31a1 1 0 0 0 .57-.74l.69-4.12 6.62-6.62 2.85 6.48a1 1 0 0 0 .89.6 1 1 0 0 0 .89-.55l1.35-2.68a3 3 0 0 0 .29-1.9 2.84 2.84 0 0 0 -.15-.56l-.15-.4.28-.28a1 1 0 0 0 -1-1.65l-.22-.6.36-.36a1 1 0 0 0 -1.09-1.63l-.2-.59 2.62-2.62a4.69 4.69 0 0 0 1.38-3.96z"/></g></svg>