<svg height="512" viewBox="0 0 48 48" width="512" xmlns="http://www.w3.org/2000/svg" xmlns:xlink="http://www.w3.org/1999/xlink"><linearGradient id="linear-gradient" gradientUnits="userSpaceOnUse" x1="30" x2="30" y1="41" y2="3"><stop offset="0" stop-color="#d3e6f5"/><stop offset="1" stop-color="#f0f7fc"/></linearGradient><linearGradient id="linear-gradient-2" gradientUnits="userSpaceOnUse" x1="30" x2="30" y1="22" y2="6"><stop offset="0" stop-color="#fe9661"/><stop offset="1" stop-color="#ffb369"/></linearGradient><linearGradient id="linear-gradient-3" gradientUnits="userSpaceOnUse" x1="1" x2="8" y1="38" y2="38"><stop offset="0" stop-color="#54a5ff"/><stop offset="1" stop-color="#8ad3fe"/></linearGradient><g id="Good_Choice" data-name="Good Choice"><rect fill="#b4cde1" height="38" rx="2" width="30" x="17" y="1"/><rect fill="url(#linear-gradient)" height="38" rx="2" width="30" x="15" y="3"/><path d="m37 10v2.68a9.77 9.77 0 0 1 -6.68 9.32 1 1 0 0 1 -.64 0 9.77 9.77 0 0 1 -6.68-9.32v-2.68a1 1 0 0 1 .55-.89l6-3a1 1 0 0 1 .9 0l6 3a1 1 0 0 1 .55.89z" fill="url(#linear-gradient-2)"/><path d="m29 17c-.54 0-.57-.15-2.71-2.29a1 1 0 0 1 1.42-1.42l1.29 1.3 3.29-3.3a1 1 0 0 1 1.42 1.42l-4 4a1 1 0 0 1 -.71.29z" fill="#f0f7fc"/><rect fill="url(#linear-gradient-3)" height="18" rx="1" width="7" x="1" y="29"/><path d="m8 46c2 .68 2.74 1 3.81 1h11.19a2 2 0 0 0 0-4h1a2 2 0 0 0 0-4h1a2 2 0 0 0 0-4 2 2 0 0 0 0-4h-8v-4c0-3.82-5-5.11-5-3v3.66a3 3 0 0 1 -2.27 2.91l-1.73.43z" fill="#ffb369"/><path d="m15 29h2v2h-2a1 1 0 0 1 0-2z" fill="#eb7f58"/><g fill="#b4cde1"><path d="m25 28h-5a1 1 0 0 1 0-2h5a1 1 0 0 1 0 2z"/><path d="m40 28h-10a1 1 0 0 1 0-2h10a1 1 0 0 1 0 2z"/><path d="m40 33h-10a1 1 0 0 1 0-2h10a1 1 0 0 1 0 2z"/><path d="m40 38h-10a1 1 0 0 1 0-2h10a1 1 0 0 1 0 2z"/></g></g></svg>